<svg width="16" height="16" viewBox="0 0 16 16" fill="none" xmlns="http://www.w3.org/2000/svg">
    <path fill-rule="evenodd" clip-rule="evenodd" d="M12.6726 5.13621L10.4099 2.87347L9.74994 3.53344L12.0127 5.79618L12.6726 5.13621ZM3.32833 9.95505L9.27853 4.00484L11.5413 6.26758L5.59107 12.2178L3.13977 12.4064L3.32833 9.95505ZM6.29955 13.0178C6.21392 13.1034 6.10169 13.1574 5.98132 13.1708L2.58721 13.5479C2.24752 13.5856 1.9605 13.2986 1.99824 12.9589L2.37537 9.56479C2.38874 9.44443 2.44268 9.3322 2.52831 9.24657L9.9385 1.83638C10.1988 1.57603 10.621 1.57603 10.8813 1.83638L13.7097 4.66481C13.9701 4.92516 13.9701 5.34727 13.7097 5.60762L6.29955 13.0178ZM9.9385 6.55043C9.80832 6.42025 9.59727 6.42025 9.46709 6.55043L5.69586 10.3217C5.56568 10.4518 5.56568 10.6629 5.69586 10.7931C5.82603 10.9232 6.03709 10.9232 6.16726 10.7931L9.9385 7.02183C10.0687 6.89166 10.0687 6.6806 9.9385 6.55043ZM8.52429 5.60762C8.65446 5.47744 8.86552 5.47744 8.99569 5.60762C9.12587 5.73779 9.12586 5.94885 8.99569 6.07902L5.22445 9.85026C5.09428 9.98043 4.88322 9.98043 4.75305 9.85026C4.62287 9.72008 4.62287 9.50903 4.75305 9.37885L8.52429 5.60762Z" fill="#fff" stroke="#67758A" stroke-width="0.25"/>
</svg>
